<?xml version="1.0" encoding="UTF-8"?>
<svg id="Layer_2" data-name="Layer 2" xmlns="http://www.w3.org/2000/svg" viewBox="0 0 241.74 383.2">
  <defs>
    <style>
      .cls-1 {
        stroke-dasharray: 0 0 3.02 3.02;
      }

      .cls-1, .cls-2, .cls-3, .cls-4, .cls-5, .cls-6, .cls-7, .cls-8 {
        stroke-miterlimit: 10;
      }

      .cls-1, .cls-2, .cls-6, .cls-7 {
        stroke-width: .25px;
      }

      .cls-1, .cls-3, .cls-4, .cls-5, .cls-7, .cls-8 {
        fill: none;
      }

      .cls-1, .cls-7, .cls-8 {
        stroke: #d1d3d4;
      }

      .cls-9 {
        letter-spacing: -.03em;
      }

      .cls-10 {
        letter-spacing: 0em;
      }

      .cls-11 {
        letter-spacing: -.01em;
      }

      .cls-12 {
        letter-spacing: 0em;
      }

      .cls-13 {
        font-size: 19.31px;
      }

      .cls-13, .cls-2, .cls-14 {
        font-family: ArialMT, Arial;
      }

      .cls-13, .cls-14 {
        fill: #d1d3d4;
      }

      .cls-2, .cls-6 {
        fill: #050606;
        font-size: 16px;
        stroke: #231f20;
      }

      .cls-3 {
        stroke: #02a895;
      }

      .cls-4 {
        stroke: #01808f;
      }

      .cls-5 {
        stroke: #04668d;
      }

      .cls-6 {
        font-family: MyriadPro-Regular, 'Myriad Pro';
      }

      .cls-14 {
        font-size: 16.17px;
      }

      .cls-8 {
        stroke-width: .5px;
      }
    </style>
  </defs>
  <g id="Layer_1-2" data-name="Layer 1">
    <rect class="cls-8" x="31.34" y=".25" width="201.83" height="356.34"/>
    <line class="cls-8" x1="31.34" y1="237.81" x2="233.17" y2="237.81"/>
    <line class="cls-8" x1="31.34" y1="119.03" x2="233.17" y2="119.03"/>
    <g>
      <line class="cls-7" x1="182.71" y1=".25" x2="182.71" y2="1.75"/>
      <line class="cls-1" x1="182.71" y1="4.77" x2="182.71" y2="353.58"/>
      <line class="cls-7" x1="182.71" y1="355.09" x2="182.71" y2="356.59"/>
    </g>
    <g>
      <line class="cls-7" x1="132.26" y1=".25" x2="132.26" y2="1.75"/>
      <line class="cls-1" x1="132.26" y1="4.77" x2="132.26" y2="353.58"/>
      <line class="cls-7" x1="132.26" y1="355.09" x2="132.26" y2="356.59"/>
    </g>
    <g>
      <line class="cls-7" x1="81.8" y1=".25" x2="81.8" y2="1.75"/>
      <line class="cls-1" x1="81.8" y1="4.77" x2="81.8" y2="353.58"/>
      <line class="cls-7" x1="81.8" y1="355.09" x2="81.8" y2="356.59"/>
    </g>
    <text class="cls-13" transform="translate(27.74 376.93)"><tspan x="0" y="0">0</tspan></text>
    <text class="cls-13" transform="translate(75.37 376.93)"><tspan x="0" y="0">5</tspan></text>
    <text class="cls-13" transform="translate(122.38 375.93)"><tspan x="0" y="0">10</tspan></text>
    <text class="cls-13" transform="translate(171.51 375.93)"><tspan x="0" y="0">15</tspan></text>
    <text class="cls-13" transform="translate(219.79 375.93)"><tspan x="0" y="0">20</tspan></text>
    <text class="cls-2" transform="translate(34.92 20.54)"><tspan x="0" y="0">[Glu]/uM</tspan></text>
    <text class="cls-6" transform="translate(36.37 138.56)"><tspan x="0" y="0">[</tspan><tspan class="cls-9" x="4.54" y="0">U</tspan><tspan class="cls-10" x="14.35" y="0">A</tspan><tspan x="24" y="0">]/uM</tspan></text>
    <text class="cls-6" transform="translate(35.61 256.38) scale(.95 1)"><tspan class="cls-11" x="0" y="0">[</tspan><tspan x="4.35" y="0">Ch</tspan><tspan class="cls-12" x="22.51" y="0">o</tspan><tspan x="31.25" y="0">]/nM</tspan></text>
    <line class="cls-7" x1="233.48" y1="299.41" x2="31.64" y2="299.41"/>
    <line class="cls-7" x1="31.64" y1="177.73" x2="233.48" y2="177.73"/>
    <line class="cls-7" x1="31.64" y1="59.91" x2="233.48" y2="59.91"/>
    <line class="cls-7" x1="30.86" y1="328.84" x2="232.69" y2="328.84"/>
    <line class="cls-7" x1="30.86" y1="270.9" x2="232.69" y2="270.9"/>
    <text class="cls-14" transform="translate(4.56 332.37)"><tspan x="0" y="0">10</tspan></text>
    <text class="cls-14" transform="translate(4.56 303.26)"><tspan x="0" y="0">20</tspan></text>
    <text class="cls-14" transform="translate(4.56 273.26)"><tspan x="0" y="0">30</tspan></text>
    <text class="cls-14" transform="translate(10.9 240.79)"><tspan x="0" y="0">0</tspan></text>
    <line class="cls-7" x1="31.22" y1="208.29" x2="233.06" y2="208.29"/>
    <line class="cls-7" x1="31.22" y1="150.34" x2="233.06" y2="150.34"/>
    <text class="cls-14" transform="translate(4.56 211.82)"><tspan x="0" y="0">40</tspan></text>
    <text class="cls-14" transform="translate(4.56 178.98)"><tspan x="0" y="0">80</tspan></text>
    <text class="cls-14" transform="translate(.97 153.87)"><tspan x="0" y="0">120</tspan></text>
    <line class="cls-7" x1="31.22" y1="88.54" x2="233.06" y2="88.54"/>
    <line class="cls-7" x1="31.22" y1="30.6" x2="233.06" y2="30.6"/>
    <text class="cls-14" transform="translate(4.56 94)"><tspan x="0" y="0">60</tspan></text>
    <text class="cls-14" transform="translate(0 63.1)"><tspan x="0" y="0">120</tspan></text>
    <text class="cls-14" transform="translate(0 32.2)"><tspan x="0" y="0">180</tspan></text>
    <text class="cls-14" transform="translate(10.9 122.17)"><tspan x="0" y="0">0</tspan></text>
    <path class="cls-3" d="m31.77,76.28s2.78,4.57,19.52,0c16.74-4.57,30.51-4.91,30.51-4.91l25.15-6.14,25.61,2.46"/>
    <path class="cls-4" d="m31.77,218.5s24.19-1.48,36.99,1.19c12.8,2.67,27.61-4.8,27.61-4.8,0,0,14.85-1.62,28.03-2.87,2.38-.23,4.88-.65,7.39-1.2"/>
    <path class="cls-5" d="m31.22,314.91l26.73,2.55s16.87.46,26.03,0c9.16-.46,29.28-12.06,29.28-12.06,0,0,7.16-1.09,18.47-.82"/>
  </g>
</svg>