<?xml version="1.0" encoding="UTF-8"?>
<svg id="Layer_2" data-name="Layer 2" xmlns="http://www.w3.org/2000/svg" viewBox="0 0 74.99 139.2">
  <defs>
    <style>
      .cls-1 {
        fill: #5db799;
        font-size: 9.59px;
      }

      .cls-1, .cls-2, .cls-3 {
        font-family: MyriadPro-Regular, 'Myriad Pro';
      }

      .cls-4 {
        letter-spacing: -.04em;
      }

      .cls-5 {
        letter-spacing: 0em;
      }

      .cls-6 {
        letter-spacing: -.03em;
      }

      .cls-7 {
        letter-spacing: 0em;
      }

      .cls-8 {
        letter-spacing: -.01em;
      }

      .cls-9 {
        letter-spacing: -.01em;
      }

      .cls-10 {
        letter-spacing: 0em;
      }

      .cls-11 {
        letter-spacing: 0em;
      }

      .cls-12 {
        letter-spacing: 0em;
      }

      .cls-13 {
        stroke: #4ba596;
      }

      .cls-13, .cls-14, .cls-15, .cls-2, .cls-16, .cls-17, .cls-18 {
        stroke-miterlimit: 10;
      }

      .cls-13, .cls-14, .cls-15, .cls-16, .cls-17, .cls-18 {
        fill: none;
      }

      .cls-14 {
        stroke: #377e8d;
      }

      .cls-15 {
        stroke: #2b648a;
      }

      .cls-2 {
        fill: #050606;
        stroke: #221f20;
      }

      .cls-2, .cls-16, .cls-17 {
        stroke-width: .25px;
      }

      .cls-2, .cls-3 {
        font-size: 5.99px;
      }

      .cls-19 {
        letter-spacing: -.04em;
      }

      .cls-16 {
        stroke-dasharray: 0 0 3.07 3.07;
      }

      .cls-16, .cls-17, .cls-18 {
        stroke: #d1d3d4;
      }

      .cls-20 {
        letter-spacing: 0em;
      }

      .cls-3 {
        fill: #d1d3d4;
      }

      .cls-18 {
        stroke-width: .5px;
      }
    </style>
  </defs>
  <g id="Layer_1-2" data-name="Layer 1">
    <text class="cls-1" transform="translate(12.68 8.02)"><tspan class="cls-10" x="0" y="0">M</tspan><tspan x="7.76" y="0">etS</tspan><tspan class="cls-4" x="20.47" y="0"> </tspan><tspan class="cls-19" x="22.11" y="0">T</tspan><tspan class="cls-20" x="26.44" y="0">r</tspan><tspan x="29.53" y="0">acker</tspan></text>
    <rect class="cls-18" x="9.72" y="20.89" width="62.61" height="110.54"/>
    <line class="cls-18" x1="9.72" y1="94.59" x2="72.33" y2="94.59"/>
    <line class="cls-18" x1="9.72" y1="57.74" x2="72.33" y2="57.74"/>
    <g>
      <line class="cls-17" x1="56.68" y1="20.89" x2="56.68" y2="22.39"/>
      <line class="cls-16" x1="56.68" y1="25.47" x2="56.68" y2="128.4"/>
      <line class="cls-17" x1="56.68" y1="129.93" x2="56.68" y2="131.43"/>
    </g>
    <g>
      <line class="cls-17" x1="41.03" y1="20.89" x2="41.03" y2="22.39"/>
      <line class="cls-16" x1="41.03" y1="25.47" x2="41.03" y2="128.4"/>
      <line class="cls-17" x1="41.03" y1="129.93" x2="41.03" y2="131.43"/>
    </g>
    <g>
      <line class="cls-17" x1="25.37" y1="20.89" x2="25.37" y2="22.39"/>
      <line class="cls-16" x1="25.37" y1="25.47" x2="25.37" y2="128.4"/>
      <line class="cls-17" x1="25.37" y1="129.93" x2="25.37" y2="131.43"/>
    </g>
    <text class="cls-3" transform="translate(8.6 137.71)"><tspan x="0" y="0">0</tspan></text>
    <text class="cls-3" transform="translate(23.38 137.71)"><tspan x="0" y="0">5</tspan></text>
    <text class="cls-3" transform="translate(37.96 137.4)"><tspan x="0" y="0">10</tspan></text>
    <text class="cls-3" transform="translate(53.2 137.4)"><tspan x="0" y="0">15</tspan></text>
    <text class="cls-3" transform="translate(68.18 137.4)"><tspan x="0" y="0">20</tspan></text>
    <text class="cls-2" transform="translate(10.83 27.19)"><tspan class="cls-8" x="0" y="0">[</tspan><tspan class="cls-11" x="1.63" y="0">Glu]/uM</tspan></text>
    <text class="cls-2" transform="translate(11.28 63.8)"><tspan x="0" y="0">[</tspan><tspan class="cls-6" x="1.7" y="0">U</tspan><tspan class="cls-7" x="5.37" y="0">A</tspan><tspan class="cls-11" x="8.99" y="0">]/uM</tspan></text>
    <text class="cls-2" transform="translate(11.05 100.35) scale(.95 1)"><tspan class="cls-9" x="0" y="0">[</tspan><tspan x="1.63" y="0">Ch</tspan><tspan class="cls-5" x="8.43" y="0">o</tspan><tspan class="cls-12" x="11.7" y="0">]/nM</tspan></text>
    <line class="cls-17" x1="72.43" y1="113.69" x2="9.82" y2="113.69"/>
    <line class="cls-17" x1="9.82" y1="75.95" x2="72.43" y2="75.95"/>
    <line class="cls-17" x1="9.82" y1="39.4" x2="72.43" y2="39.4"/>
    <line class="cls-17" x1="9.57" y1="122.82" x2="72.18" y2="122.82"/>
    <line class="cls-17" x1="9.57" y1="104.85" x2="72.18" y2="104.85"/>
    <text class="cls-3" transform="translate(1.41 124.58)"><tspan x="0" y="0">10</tspan></text>
    <text class="cls-3" transform="translate(1.41 115.55)"><tspan x="0" y="0">20</tspan></text>
    <text class="cls-3" transform="translate(1.41 106.25)"><tspan x="0" y="0">30</tspan></text>
    <text class="cls-3" transform="translate(3.38 96.17)"><tspan x="0" y="0">0</tspan></text>
    <line class="cls-17" x1="9.69" y1="85.43" x2="72.3" y2="85.43"/>
    <line class="cls-17" x1="9.69" y1="67.45" x2="72.3" y2="67.45"/>
    <text class="cls-3" transform="translate(1.41 87.19)"><tspan x="0" y="0">40</tspan></text>
    <text class="cls-3" transform="translate(1.41 77)"><tspan x="0" y="0">80</tspan></text>
    <text class="cls-3" transform="translate(.3 69.21)"><tspan x="0" y="0">120</tspan></text>
    <line class="cls-17" x1="9.69" y1="48.28" x2="72.3" y2="48.28"/>
    <line class="cls-17" x1="9.69" y1="30.31" x2="72.3" y2="30.31"/>
    <text class="cls-3" transform="translate(1.41 50.64)"><tspan x="0" y="0">60</tspan></text>
    <text class="cls-3" transform="translate(0 41.05)"><tspan x="0" y="0">120</tspan></text>
    <text class="cls-3" transform="translate(0 31.47)"><tspan x="0" y="0">180</tspan></text>
    <text class="cls-3" transform="translate(3.38 59.38)"><tspan x="0" y="0">0</tspan></text>
    <path class="cls-13" d="m9.86,44.48s.86,1.42,6.06,0,9.46-1.52,9.46-1.52l7.8-1.9,7.94.76s1.47.06,4.81.05,10.75,2.61,10.75,2.61"/>
    <path class="cls-14" d="m9.86,88.6s7.5-.46,11.47.37,8.56-1.49,8.56-1.49c0,0,4.61-.5,8.69-.89s9.37-2.7,9.37-2.7c0,0,4.87.28,8.65.55"/>
    <path class="cls-15" d="m9.69,118.5l8.29.79s5.23.14,8.07,0,9.08-3.74,9.08-3.74c0,0,3.95-.6,9.64,0s7.34-.54,11.91-.27"/>
  </g>
</svg>