<?xml version="1.0" encoding="UTF-8"?>
<svg id="Layer_2" data-name="Layer 2" xmlns="http://www.w3.org/2000/svg" viewBox="0 0 75.36 139.9">
  <defs>
    <style>
      .cls-1 {
        fill: #5db799;
        font-size: 9.63px;
      }

      .cls-1, .cls-2, .cls-3 {
        font-family: MyriadPro-Regular, 'Myriad Pro';
      }

      .cls-4 {
        letter-spacing: -.04em;
      }

      .cls-5 {
        letter-spacing: 0em;
      }

      .cls-6 {
        letter-spacing: 0em;
      }

      .cls-7 {
        letter-spacing: -.03em;
      }

      .cls-8 {
        letter-spacing: 0em;
      }

      .cls-9 {
        letter-spacing: -.01em;
      }

      .cls-10 {
        letter-spacing: 0em;
      }

      .cls-11 {
        letter-spacing: -.01em;
      }

      .cls-12 {
        letter-spacing: 0em;
      }

      .cls-13 {
        letter-spacing: 0em;
      }

      .cls-14 {
        stroke-dasharray: 0 0 2.92 2.92;
      }

      .cls-14, .cls-15, .cls-16, .cls-17, .cls-18, .cls-3, .cls-19 {
        stroke-miterlimit: 10;
      }

      .cls-14, .cls-15, .cls-16, .cls-17, .cls-18, .cls-19 {
        fill: none;
      }

      .cls-14, .cls-18, .cls-3 {
        stroke-width: .25px;
      }

      .cls-14, .cls-18, .cls-19 {
        stroke: #d1d3d4;
      }

      .cls-15 {
        stroke: #4ba596;
      }

      .cls-16 {
        stroke: #377e8d;
      }

      .cls-17 {
        stroke: #2b648a;
      }

      .cls-20 {
        letter-spacing: -.04em;
      }

      .cls-2 {
        fill: #d1d3d4;
      }

      .cls-2, .cls-3 {
        font-size: 6.02px;
      }

      .cls-3 {
        fill: #050606;
        stroke: #221f20;
      }

      .cls-19 {
        stroke-width: .5px;
      }
    </style>
  </defs>
  <g id="Layer_1-2" data-name="Layer 1">
    <text class="cls-1" transform="translate(12.74 8.06)"><tspan class="cls-13" x="0" y="0">M</tspan><tspan class="cls-10" x="7.8" y="0">etS</tspan><tspan class="cls-4" x="20.57" y="0"> </tspan><tspan class="cls-20" x="22.22" y="0">T</tspan><tspan class="cls-6" x="26.57" y="0">r</tspan><tspan x="29.67" y="0">acker</tspan></text>
    <rect class="cls-19" x="9.77" y="21" width="62.92" height="111.09"/>
    <line class="cls-19" x1="9.77" y1="95.06" x2="72.69" y2="95.06"/>
    <line class="cls-19" x1="9.77" y1="58.03" x2="72.69" y2="58.03"/>
    <g>
      <line class="cls-18" x1="56.96" y1="21" x2="56.96" y2="22.5"/>
      <line class="cls-14" x1="56.96" y1="25.42" x2="56.96" y2="129.13"/>
      <line class="cls-18" x1="56.96" y1="130.59" x2="56.96" y2="132.09"/>
    </g>
    <g>
      <line class="cls-18" x1="41.23" y1="21" x2="41.23" y2="22.5"/>
      <line class="cls-14" x1="41.23" y1="25.42" x2="41.23" y2="129.13"/>
      <line class="cls-18" x1="41.23" y1="130.59" x2="41.23" y2="132.09"/>
    </g>
    <g>
      <line class="cls-18" x1="25.5" y1="21" x2="25.5" y2="22.5"/>
      <line class="cls-14" x1="25.5" y1="25.42" x2="25.5" y2="129.13"/>
      <line class="cls-18" x1="25.5" y1="130.59" x2="25.5" y2="132.09"/>
    </g>
    <text class="cls-2" transform="translate(8.65 138.39)"><tspan x="0" y="0">0</tspan></text>
    <text class="cls-2" transform="translate(23.5 138.39)"><tspan x="0" y="0">5</tspan></text>
    <text class="cls-2" transform="translate(38.15 138.08)"><tspan x="0" y="0">10</tspan></text>
    <text class="cls-2" transform="translate(53.47 138.08)"><tspan x="0" y="0">15</tspan></text>
    <text class="cls-2" transform="translate(68.52 138.08)"><tspan x="0" y="0">20</tspan></text>
    <text class="cls-3" transform="translate(10.89 27.32)"><tspan class="cls-9" x="0" y="0">[</tspan><tspan x="1.64" y="0">Glu]/uM</tspan></text>
    <text class="cls-3" transform="translate(11.34 64.12)"><tspan x="0" y="0">[</tspan><tspan class="cls-7" x="1.71" y="0">U</tspan><tspan class="cls-8" x="5.4" y="0">A</tspan><tspan x="9.03" y="0">]/uM</tspan></text>
    <text class="cls-3" transform="translate(11.1 100.85) scale(.95 1)"><tspan class="cls-11" x="0" y="0">[</tspan><tspan class="cls-12" x="1.64" y="0">Ch</tspan><tspan class="cls-5" x="8.47" y="0">o</tspan><tspan x="11.76" y="0">]/nM</tspan></text>
    <line class="cls-18" x1="72.79" y1="114.26" x2="9.87" y2="114.26"/>
    <line class="cls-18" x1="9.87" y1="76.33" x2="72.79" y2="76.33"/>
    <line class="cls-18" x1="9.87" y1="39.6" x2="72.79" y2="39.6"/>
    <line class="cls-18" x1="9.62" y1="123.44" x2="72.54" y2="123.44"/>
    <line class="cls-18" x1="9.62" y1="105.37" x2="72.54" y2="105.37"/>
    <text class="cls-2" transform="translate(1.42 125.2)"><tspan x="0" y="0">10</tspan></text>
    <text class="cls-2" transform="translate(1.42 116.13)"><tspan x="0" y="0">20</tspan></text>
    <text class="cls-2" transform="translate(1.42 106.78)"><tspan x="0" y="0">30</tspan></text>
    <text class="cls-2" transform="translate(3.4 96.65)"><tspan x="0" y="0">0</tspan></text>
    <line class="cls-18" x1="9.73" y1="85.85" x2="72.66" y2="85.85"/>
    <line class="cls-18" x1="9.73" y1="67.79" x2="72.66" y2="67.79"/>
    <text class="cls-2" transform="translate(1.42 87.62)"><tspan x="0" y="0">40</tspan></text>
    <text class="cls-2" transform="translate(1.42 77.38)"><tspan x="0" y="0">80</tspan></text>
    <text class="cls-2" transform="translate(.3 69.56)"><tspan x="0" y="0">120</tspan></text>
    <line class="cls-18" x1="9.73" y1="48.52" x2="72.66" y2="48.52"/>
    <line class="cls-18" x1="9.73" y1="30.46" x2="72.66" y2="30.46"/>
    <text class="cls-2" transform="translate(1.42 50.89)"><tspan x="0" y="0">60</tspan></text>
    <text class="cls-2" transform="translate(0 41.26)"><tspan x="0" y="0">120</tspan></text>
    <text class="cls-2" transform="translate(0 31.62)"><tspan x="0" y="0">180</tspan></text>
    <text class="cls-2" transform="translate(3.4 59.67)"><tspan x="0" y="0">0</tspan></text>
    <path class="cls-15" d="m9.91,44.7s.87,1.42,6.09,0,9.51-1.53,9.51-1.53"/>
    <path class="cls-16" d="m9.91,89.04s7.54-.46,11.53.37c1.35.28,2.77.2,4.07-.03"/>
    <path class="cls-17" d="m9.73,119.09l8.33.8s4.5.12,7.44.03"/>
  </g>
</svg>