<?xml version="1.0" encoding="UTF-8"?>
<svg id="Layer_2" data-name="Layer 2" xmlns="http://www.w3.org/2000/svg" viewBox="0 0 241.76 383.23">
  <defs>
    <style>
      .cls-1 {
        stroke-dasharray: 0 0 3.02 3.02;
      }

      .cls-1, .cls-2, .cls-3, .cls-4, .cls-5, .cls-6, .cls-7 {
        stroke-miterlimit: 10;
      }

      .cls-1, .cls-2, .cls-6 {
        stroke-width: .25px;
      }

      .cls-1, .cls-3, .cls-4, .cls-5, .cls-6, .cls-7 {
        fill: none;
      }

      .cls-1, .cls-6, .cls-7 {
        stroke: #d1d3d4;
      }

      .cls-8 {
        font-size: 15.62px;
      }

      .cls-8, .cls-9 {
        fill: #d1d3d4;
      }

      .cls-8, .cls-9, .cls-2 {
        font-family: ArialMT, Arial;
      }

      .cls-9 {
        font-size: 19.32px;
      }

      .cls-2 {
        fill: #050606;
        font-size: 16px;
        stroke: #231f20;
      }

      .cls-3 {
        stroke: #02a895;
      }

      .cls-4 {
        stroke: #01808f;
      }

      .cls-5 {
        stroke: #04668d;
      }

      .cls-7 {
        stroke-width: .5px;
      }
    </style>
  </defs>
  <g id="Layer_1-2" data-name="Layer 1">
    <rect class="cls-7" x="31.34" y=".25" width="201.85" height="356.38"/>
    <line class="cls-7" x1="31.34" y1="237.84" x2="233.19" y2="237.84"/>
    <line class="cls-7" x1="31.34" y1="119.04" x2="233.19" y2="119.04"/>
    <g>
      <line class="cls-6" x1="182.73" y1=".25" x2="182.73" y2="1.75"/>
      <line class="cls-1" x1="182.73" y1="4.77" x2="182.73" y2="353.62"/>
      <line class="cls-6" x1="182.73" y1="355.13" x2="182.73" y2="356.63"/>
    </g>
    <g>
      <line class="cls-6" x1="132.27" y1=".25" x2="132.27" y2="1.75"/>
      <line class="cls-1" x1="132.27" y1="4.77" x2="132.27" y2="353.62"/>
      <line class="cls-6" x1="132.27" y1="355.13" x2="132.27" y2="356.63"/>
    </g>
    <g>
      <line class="cls-6" x1="81.81" y1=".25" x2="81.81" y2="1.75"/>
      <line class="cls-1" x1="81.81" y1="4.77" x2="81.81" y2="353.62"/>
      <line class="cls-6" x1="81.81" y1="355.13" x2="81.81" y2="356.63"/>
    </g>
    <text class="cls-9" transform="translate(27.74 376.96)"><tspan x="0" y="0">0</tspan></text>
    <text class="cls-9" transform="translate(75.38 376.96)"><tspan x="0" y="0">5</tspan></text>
    <text class="cls-9" transform="translate(122.4 375.97)"><tspan x="0" y="0">10</tspan></text>
    <text class="cls-9" transform="translate(171.53 375.97)"><tspan x="0" y="0">15</tspan></text>
    <text class="cls-9" transform="translate(219.82 375.97)"><tspan x="0" y="0">20</tspan></text>
    <text class="cls-2" transform="translate(34.92 20.55)"><tspan x="0" y="0">[Glu]/uM</tspan></text>
    <text class="cls-2" transform="translate(36.38 138.58)"><tspan x="0" y="0">[UA]/uM</tspan></text>
    <text class="cls-2" transform="translate(35.62 256.41) scale(.95 1)"><tspan x="0" y="0">[Cho]/nM</tspan></text>
    <line class="cls-6" x1="233.5" y1="299.44" x2="31.65" y2="299.44"/>
    <line class="cls-6" x1="31.65" y1="177.75" x2="233.5" y2="177.75"/>
    <line class="cls-6" x1="31.65" y1="59.92" x2="233.5" y2="59.92"/>
    <line class="cls-6" x1="30.86" y1="328.87" x2="232.71" y2="328.87"/>
    <line class="cls-6" x1="30.86" y1="270.92" x2="232.71" y2="270.92"/>
    <text class="cls-8" transform="translate(4.56 332.01)"><tspan x="0" y="0">10</tspan></text>
    <text class="cls-8" transform="translate(4.56 302.9)"><tspan x="0" y="0">20</tspan></text>
    <text class="cls-8" transform="translate(4.56 272.89)"><tspan x="0" y="0">30</tspan></text>
    <text class="cls-8" transform="translate(10.9 240.42)"><tspan x="0" y="0">0</tspan></text>
    <line class="cls-6" x1="31.23" y1="208.3" x2="233.08" y2="208.3"/>
    <line class="cls-6" x1="31.23" y1="150.36" x2="233.08" y2="150.36"/>
    <text class="cls-8" transform="translate(4.56 211.45)"><tspan x="0" y="0">40</tspan></text>
    <text class="cls-8" transform="translate(4.56 178.61)"><tspan x="0" y="0">80</tspan></text>
    <text class="cls-8" transform="translate(.97 153.5)"><tspan x="0" y="0">120</tspan></text>
    <line class="cls-6" x1="31.23" y1="88.55" x2="233.08" y2="88.55"/>
    <line class="cls-6" x1="31.23" y1="30.6" x2="233.08" y2="30.6"/>
    <text class="cls-8" transform="translate(4.56 93.62)"><tspan x="0" y="0">60</tspan></text>
    <text class="cls-8" transform="translate(0 62.71)"><tspan x="0" y="0">120</tspan></text>
    <text class="cls-8" transform="translate(0 31.81)"><tspan x="0" y="0">180</tspan></text>
    <text class="cls-8" transform="translate(10.9 121.79)"><tspan x="0" y="0">0</tspan></text>
    <path class="cls-3" d="m31.77,76.29s2.78,4.57,19.52,0c16.75-4.57,30.51-4.91,30.51-4.91l25.15-6.14,25.61,2.46s4.75.19,15.5.17c10.75-.02,34.66,8.41,34.66,8.41,0,0,21.47-2.51,25.83-4.51,4.35-1.99,24.16-6.54,24.16-6.54"/>
    <path class="cls-4" d="m31.77,218.52s24.19-1.48,36.99,1.19c12.8,2.67,27.61-4.8,27.61-4.8,0,0,14.85-1.62,28.03-2.87,13.18-1.25,30.2-8.71,30.2-8.71,0,0,29.09,1.67,38.87,2.64s39.24,5.84,39.24,5.84"/>
    <path class="cls-5" d="m31.23,314.94l26.73,2.55s16.87.46,26.03,0c9.16-.46,29.28-12.06,29.28-12.06,0,0,12.72-1.94,31.07,0s23.66-1.74,38.39-.86l26.88,6.49,23.88-5.42"/>
  </g>
</svg>