<?xml version="1.0" encoding="UTF-8"?>
<svg id="Layer_2" data-name="Layer 2" xmlns="http://www.w3.org/2000/svg" viewBox="0 0 236.34 379.68">
  <defs>
    <style>
      .cls-1 {
        font-size: 15.89px;
      }

      .cls-1, .cls-2 {
        fill: #d1d3d4;
      }

      .cls-1, .cls-2, .cls-3 {
        font-family: ArialMT, Arial;
      }

      .cls-4 {
        stroke-dasharray: 0 0 2.99 2.99;
      }

      .cls-4, .cls-3, .cls-5, .cls-6, .cls-7, .cls-8, .cls-9 {
        stroke-miterlimit: 10;
      }

      .cls-4, .cls-3, .cls-8 {
        stroke-width: .25px;
      }

      .cls-4, .cls-5, .cls-6, .cls-7, .cls-8, .cls-9 {
        fill: none;
      }

      .cls-4, .cls-8, .cls-9 {
        stroke: #d1d3d4;
      }

      .cls-2 {
        font-size: 19.14px;
      }

      .cls-3 {
        fill: #050606;
        font-size: 16px;
        stroke: #231f20;
      }

      .cls-5 {
        stroke: #02a895;
      }

      .cls-6 {
        stroke: #01808f;
      }

      .cls-7 {
        stroke: #04668d;
      }

      .cls-9 {
        stroke-width: .5px;
      }
    </style>
  </defs>
  <g id="Layer_1-2" data-name="Layer 1">
    <rect class="cls-9" x="27.88" y=".25" width="199.98" height="353.07"/>
    <line class="cls-9" x1="27.88" y1="235.63" x2="227.86" y2="235.63"/>
    <line class="cls-9" x1="27.88" y1="117.94" x2="227.86" y2="117.94"/>
    <g>
      <line class="cls-8" x1="177.86" y1=".25" x2="177.86" y2="1.75"/>
      <line class="cls-4" x1="177.86" y1="4.74" x2="177.86" y2="350.33"/>
      <line class="cls-8" x1="177.86" y1="351.82" x2="177.86" y2="353.32"/>
    </g>
    <g>
      <line class="cls-8" x1="127.87" y1=".25" x2="127.87" y2="1.75"/>
      <line class="cls-4" x1="127.87" y1="4.74" x2="127.87" y2="350.33"/>
      <line class="cls-8" x1="127.87" y1="351.82" x2="127.87" y2="353.32"/>
    </g>
    <g>
      <line class="cls-8" x1="77.87" y1=".25" x2="77.87" y2="1.75"/>
      <line class="cls-4" x1="77.87" y1="4.74" x2="77.87" y2="350.33"/>
      <line class="cls-8" x1="77.87" y1="351.82" x2="77.87" y2="353.32"/>
    </g>
    <text class="cls-2" transform="translate(24.31 373.47)"><tspan x="0" y="0">0</tspan></text>
    <text class="cls-2" transform="translate(71.5 373.47)"><tspan x="0" y="0">5</tspan></text>
    <text class="cls-2" transform="translate(118.08 372.48)"><tspan x="0" y="0">10</tspan></text>
    <text class="cls-2" transform="translate(166.76 372.48)"><tspan x="0" y="0">15</tspan></text>
    <text class="cls-2" transform="translate(214.6 372.48)"><tspan x="0" y="0">20</tspan></text>
    <text class="cls-3" transform="translate(31.42 20.36)"><tspan x="0" y="0">[Glu]/uM</tspan></text>
    <text class="cls-3" transform="translate(32.86 137.3)"><tspan x="0" y="0">[UA]/uM</tspan></text>
    <text class="cls-3" transform="translate(32.1 254.03) scale(.95 1)"><tspan x="0" y="0">[Cho]/nM</tspan></text>
    <line class="cls-8" x1="228.16" y1="296.66" x2="28.18" y2="296.66"/>
    <line class="cls-8" x1="28.18" y1="176.1" x2="228.16" y2="176.1"/>
    <line class="cls-8" x1="28.18" y1="59.37" x2="228.16" y2="59.37"/>
    <line class="cls-8" x1="27.4" y1="325.82" x2="227.38" y2="325.82"/>
    <line class="cls-8" x1="27.4" y1="268.41" x2="227.38" y2="268.41"/>
    <text class="cls-1" transform="translate(4.52 329.23)"><tspan x="0" y="0">10</tspan></text>
    <text class="cls-1" transform="translate(4.52 300.39)"><tspan x="0" y="0">20</tspan></text>
    <text class="cls-1" transform="translate(4.52 270.66)"><tspan x="0" y="0">30</tspan></text>
    <text class="cls-1" transform="translate(10.8 238.49)"><tspan x="0" y="0">0</tspan></text>
    <line class="cls-8" x1="27.76" y1="206.38" x2="227.74" y2="206.38"/>
    <line class="cls-8" x1="27.76" y1="148.97" x2="227.74" y2="148.97"/>
    <text class="cls-1" transform="translate(4.52 209.78)"><tspan x="0" y="0">40</tspan></text>
    <text class="cls-1" transform="translate(4.52 177.25)"><tspan x="0" y="0">80</tspan></text>
    <text class="cls-1" transform="translate(.96 152.37)"><tspan x="0" y="0">120</tspan></text>
    <line class="cls-8" x1="27.76" y1="87.73" x2="227.74" y2="87.73"/>
    <line class="cls-8" x1="27.76" y1="30.32" x2="227.74" y2="30.32"/>
    <text class="cls-1" transform="translate(4.52 93.05)"><tspan x="0" y="0">60</tspan></text>
    <text class="cls-1" transform="translate(0 62.43)"><tspan x="0" y="0">120</tspan></text>
    <text class="cls-1" transform="translate(0 31.81)"><tspan x="0" y="0">180</tspan></text>
    <text class="cls-1" transform="translate(10.8 120.96)"><tspan x="0" y="0">0</tspan></text>
    <path class="cls-5" d="m28.3,75.58s2.75,4.53,19.34,0,30.23-4.86,30.23-4.86"/>
    <path class="cls-6" d="m28.3,216.5s23.97-1.46,36.65,1.18c4.29.9,8.82.64,12.92-.09"/>
    <path class="cls-7" d="m27.76,312.02l26.48,2.53s14.3.39,23.63.09"/>
  </g>
</svg>
